{
    "asset" : {
        "generator" : "Khronos glTF Blender I/O v1.5.17",
        "version" : "2.0"
    },
    "scene" : 0,
    "scenes" : [
        {
            "name" : "Scene",
            "nodes" : [
                0,
                1,
                2,
                3,
                4,
                5
            ]
        }
    ],
    "nodes" : [
        {
            "name" : "Light",
            "rotation" : [
                0.16907577216625214,
                0.7558802962303162,
                -0.27217137813568115,
                0.570947527885437
            ],
            "translation" : [
                4.224771499633789,
                7.640996932983398,
                -3.1939873695373535
            ]
        },
        {
            "name" : "Camera",
            "rotation" : [
                0.483536034822464,
                0.33687159419059753,
                -0.20870360732078552,
                0.7804827094078064
            ],
            "translation" : [
                17.61447525024414,
                13.726710319519043,
                16.59288787841797
            ]
        },
        {
            "mesh" : 0,
            "name" : "Cube"
        },
        {
            "mesh" : 1,
            "name" : "Text",
            "rotation" : [
                0.6532814502716064,
                0.27059808373451233,
                -0.2705981135368347,
                0.6532814502716064
            ],
            "scale" : [
                0.3084926903247833,
                0.3084926903247833,
                0.3084926903247833
            ],
            "translation" : [
                2.108288049697876,
                4.7805070877075195,
                -1.9211721420288086
            ]
        },
        {
            "mesh" : 2,
            "name" : "Cube.001",
            "scale" : [
                -0.5,
                -0.5,
                -0.5
            ],
            "translation" : [
                -1.1035730838775635,
                0.4911302924156189,
                2.5357871055603027
            ]
        },
        {
            "name" : "Area",
            "rotation" : [
                0.3088991641998291,
                0.16122961044311523,
                0.10036731511354446,
                0.9319403171539307
            ],
            "translation" : [
                -17.357805252075195,
                6.378851890563965,
                1.0960729122161865
            ]
        }
    ],
    "materials" : [
        {
            "doubleSided" : true,
            "name" : "Material.001",
            "pbrMetallicRoughness" : {
                "baseColorTexture" : {
                    "index" : 0
                },
                "metallicFactor" : 0,
                "roughnessFactor" : 0.5
            }
        },
        {
            "doubleSided" : true,
            "emissiveFactor" : [
                1,
                0.03113008476793766,
                0.03113008476793766
            ],
            "name" : "Material.002",
            "pbrMetallicRoughness" : {}
        }
    ],
    "meshes" : [
        {
            "name" : "Cube.002",
            "primitives" : [
                {
                    "attributes" : {
                        "POSITION" : 0,
                        "NORMAL" : 1,
                        "TEXCOORD_0" : 2
                    },
                    "indices" : 3,
                    "material" : 0
                }
            ]
        },
        {
            "name" : "Text.001",
            "primitives" : [
                {
                    "attributes" : {
                        "POSITION" : 4,
                        "NORMAL" : 5,
                        "TEXCOORD_0" : 6
                    },
                    "indices" : 7,
                    "material" : 1
                }
            ]
        },
        {
            "name" : "Cube",
            "primitives" : [
                {
                    "attributes" : {
                        "POSITION" : 8,
                        "NORMAL" : 9,
                        "TEXCOORD_0" : 10
                    },
                    "indices" : 11,
                    "material" : 0
                }
            ]
        }
    ],
    "textures" : [
        {
            "sampler" : 0,
            "source" : 0
        }
    ],
    "images" : [
        {
            "bufferView" : 4,
            "mimeType" : "image/png",
            "name" : "owish_palette"
        }
    ],
    "accessors" : [
        {
            "bufferView" : 0,
            "componentType" : 5126,
            "count" : 102,
            "max" : [
                2.279871940612793,
                5.84737491607666,
                2
            ],
            "min" : [
                -2,
                0,
                -2.279871940612793
            ],
            "type" : "VEC3"
        },
        {
            "bufferView" : 1,
            "componentType" : 5126,
            "count" : 102,
            "type" : "VEC3"
        },
        {
            "bufferView" : 2,
            "componentType" : 5126,
            "count" : 102,
            "type" : "VEC2"
        },
        {
            "bufferView" : 3,
            "componentType" : 5123,
            "count" : 210,
            "type" : "SCALAR"
        },
        {
            "bufferView" : 5,
            "componentType" : 5126,
            "count" : 124,
            "max" : [
                0.6250072717666626,
                0,
                -0.0005459200474433601
            ],
            "min" : [
                -0.5892857313156128,
                0,
                -1.7599329948425293
            ],
            "type" : "VEC3"
        },
        {
            "bufferView" : 6,
            "componentType" : 5126,
            "count" : 124,
            "type" : "VEC3"
        },
        {
            "bufferView" : 7,
            "componentType" : 5126,
            "count" : 124,
            "type" : "VEC2"
        },
        {
            "bufferView" : 8,
            "componentType" : 5123,
            "count" : 267,
            "type" : "SCALAR"
        },
        {
            "bufferView" : 9,
            "componentType" : 5126,
            "count" : 24,
            "max" : [
                1,
                1,
                1
            ],
            "min" : [
                -2.2133665084838867,
                -1,
                -1
            ],
            "type" : "VEC3"
        },
        {
            "bufferView" : 10,
            "componentType" : 5126,
            "count" : 24,
            "type" : "VEC3"
        },
        {
            "bufferView" : 11,
            "componentType" : 5126,
            "count" : 24,
            "type" : "VEC2"
        },
        {
            "bufferView" : 12,
            "componentType" : 5123,
            "count" : 36,
            "type" : "SCALAR"
        }
    ],
    "bufferViews" : [
        {
            "buffer" : 0,
            "byteLength" : 1224,
            "byteOffset" : 0
        },
        {
            "buffer" : 0,
            "byteLength" : 1224,
            "byteOffset" : 1224
        },
        {
            "buffer" : 0,
            "byteLength" : 816,
            "byteOffset" : 2448
        },
        {
            "buffer" : 0,
            "byteLength" : 420,
            "byteOffset" : 3264
        },
        {
            "buffer" : 0,
            "byteLength" : 81301,
            "byteOffset" : 3684
        },
        {
            "buffer" : 0,
            "byteLength" : 1488,
            "byteOffset" : 84988
        },
        {
            "buffer" : 0,
            "byteLength" : 1488,
            "byteOffset" : 86476
        },
        {
            "buffer" : 0,
            "byteLength" : 992,
            "byteOffset" : 87964
        },
        {
            "buffer" : 0,
            "byteLength" : 534,
            "byteOffset" : 88956
        },
        {
            "buffer" : 0,
            "byteLength" : 288,
            "byteOffset" : 89492
        },
        {
            "buffer" : 0,
            "byteLength" : 288,
            "byteOffset" : 89780
        },
        {
            "buffer" : 0,
            "byteLength" : 192,
            "byteOffset" : 90068
        },
        {
            "buffer" : 0,
            "byteLength" : 72,
            "byteOffset" : 90260
        }
    ],
    "samplers" : [
        {
            "magFilter" : 9729,
            "minFilter" : 9987
        }
    ],
    "buffers" : [
        {
            "byteLength" : 90332,
            "uri" : "data:application/octet-stream;base64,"
        }
    ]
}
